<svg width="235" height="200" viewBox="0 0 235 200" fill="none" xmlns="http://www.w3.org/2000/svg">
<mask id="mask0_57_66" style="mask-type:alpha" maskUnits="userSpaceOnUse" x="0" y="5" width="137" height="195">
<rect y="5" width="136.335" height="195" fill="#D9D9D9"/>
</mask>
<g mask="url(#mask0_57_66)">
<path fill-rule="evenodd" clip-rule="evenodd" d="M2.75029 197.149C3.02875 191.974 3.37082 186.803 3.78064 181.636C4.59618 171.345 5.66455 161.047 7.44268 150.873C9.19685 140.836 11.6525 131.076 15.189 121.512C16.8299 117.074 18.6072 113.289 21.1852 109.3C23.6227 105.529 26.7336 102.973 30.6089 100.696C34.1007 98.6449 38.1568 95.0861 41.5057 92.7883C42.9038 91.8298 45.78 91.8934 46.7385 90.4755C47.9944 88.6172 47.1805 85.774 48.4456 83.9232C49.8924 81.8063 51.9192 80.1612 54.2047 78.9672C56.6992 77.2775 59.6366 76.5124 62.5831 76.6173C66.9268 76.3537 71.3011 77.7377 74.0905 81.2742C75.482 83.0399 76.2942 85.0758 76.4066 87.3316C76.4363 87.9174 76.2479 88.3801 75.9381 88.7139C76.1215 88.9602 76.305 89.2064 76.4867 89.4534C77.0569 88.6082 78.3905 88.1595 79.2787 88.7974C82.1855 90.8845 85.327 92.5445 88.643 93.7608C89.4188 93.3939 90.3579 93.5633 91.0225 94.1632C91.2922 94.4061 91.5783 94.6143 91.8774 94.7911C93.1068 95.1241 94.3553 95.4026 95.6223 95.6182C96.0189 95.6852 96.3549 95.9107 96.6098 96.214C96.9873 95.8612 97.5063 95.6918 98.0859 95.9124C104.778 98.4647 111.097 102.429 115.901 107.8C121.223 113.75 124.018 121.152 126.146 128.735C128.449 136.944 129.921 145.357 131.158 153.785C132.411 162.324 133.645 170.897 134.507 179.485C134.992 184.318 135.177 189.195 134.957 194.049C134.848 196.475 134.626 198.894 134.273 201.297C134.191 201.859 134.105 202.506 133.967 203.152C134.388 203.071 134.889 203.427 134.804 203.997C134.21 207.968 129.41 209.125 126.1 209.583C120.686 210.33 115.243 210.745 109.776 210.777C104.405 210.808 99.0336 210.463 93.6729 210.154C88.1769 209.838 82.6813 209.52 77.1849 209.197C55.1656 207.906 33.1455 206.629 11.1262 205.336C9.11422 205.218 6.8172 205.059 5.0936 203.891C2.7321 202.291 2.61064 199.748 2.75029 197.149Z" fill="white"/>
<path fill-rule="evenodd" clip-rule="evenodd" d="M110.094 152.73C110.171 152.586 109.993 152.458 109.876 152.562C107.202 154.908 105.803 158.677 105.51 162.16C105.199 165.855 105.639 169.679 105.808 173.371C105.995 177.484 106.164 181.598 106.393 185.71C106.625 189.881 106.875 194.05 107.09 198.222L107.572 207.606C107.624 208.607 107.513 209.836 107.896 210.77C108.491 212.217 110.257 211.993 110.628 210.784L110.64 210.743L110.674 210.77C111.001 209.68 110.756 208.385 110.7 207.259L110.195 197.006C109.838 189.759 109.519 182.511 109.135 175.265L109.005 172.85C108.825 169.598 108.688 166.355 108.577 163.105L108.541 162.022C108.436 158.758 108.52 155.677 110.094 152.73ZM45.2942 92.5668C43.8044 92.4247 42.6798 92.9188 41.3281 93.4394C40.7389 93.6658 40.1812 93.9277 39.6169 94.1987C38.9087 94.5383 38.4543 95.1382 38.0188 95.7719L37.7858 96.114C35.9713 98.7729 34.7518 101.84 33.3744 104.734C31.764 108.121 30.1379 111.499 28.5613 114.901L27.7838 116.577C27.3946 117.415 27.0071 118.254 26.6254 119.095L25.9652 120.559C25.3025 122.044 24.7076 123.615 25.6529 125.147C26.5312 126.571 28.0887 127.673 29.3223 128.775C30.351 129.694 31.3806 130.612 32.4101 131.531C30.2816 133.663 28.8538 136.347 28.0135 139.225C26.8212 138.728 25.3645 138.632 24.1317 138.417C22.4048 138.116 22.1933 140.731 23.8227 140.7C25.0266 140.676 26.4378 140.799 27.6723 140.545C27.4583 141.491 27.3021 142.451 27.2029 143.414C26.6849 148.46 27.8185 153.535 29.0001 158.417L29.0976 158.818C30.3816 164.103 31.5987 169.401 32.6886 174.729C33.7801 180.069 34.7617 185.431 35.6334 190.81C36.52 196.286 37.148 201.792 37.823 207.298C37.9247 208.131 38.4493 208.845 39.369 208.845C40.1357 208.845 41.0124 208.129 40.9158 207.298C40.22 201.303 39.2326 195.339 38.2519 189.386C36.5621 179.133 34.4353 168.969 31.9895 158.871L31.5624 157.113C30.4618 152.552 29.4628 147.853 30.0147 143.149C30.4651 139.319 32.0656 135.235 35.2302 132.856L35.326 132.784C36.0656 132.242 36.3498 131.205 35.6218 130.491C35.1583 130.037 34.6948 129.582 34.2304 129.128L31.445 126.408L30.884 125.859C30.4155 125.401 29.9454 124.947 29.4603 124.506C29.167 124.24 28.3721 123.732 28.3143 123.293C28.2763 123.007 28.615 122.505 28.7522 122.242L29.381 120.972C29.738 120.248 30.0833 119.519 30.432 118.791C31.155 117.283 31.8871 115.779 32.5944 114.264L36.8398 105.163C38.037 102.595 39.1046 99.8851 40.6703 97.5112L40.9785 97.0493C41.2363 96.6593 41.4644 96.2842 41.6272 95.8074C41.7833 95.3497 41.98 94.8465 42.27 94.4548C42.9476 93.5369 44.244 93.0163 45.3289 92.8238C45.4859 92.7957 45.4288 92.5792 45.2942 92.5668ZM77.9468 90.1764C77.8526 90.1764 77.8385 90.3111 77.9253 90.3367C79.2341 90.7308 80.4842 91.3654 81.5038 92.2826C81.9922 92.7213 82.4838 93.2196 82.7854 93.8095C82.9002 94.0359 82.9639 94.2747 83.011 94.5218L83.0258 94.6052C83.1035 95.0522 83.2151 95.3009 83.4423 95.6587L83.4811 95.7199C84.7775 97.7227 85.6861 99.9471 86.5168 102.175L88.326 107.032L90.134 111.889C90.7165 113.454 91.2994 115.019 91.8821 116.584C92.204 117.448 92.535 118.308 92.8657 119.169C93.0089 119.542 93.1629 119.912 93.2938 120.29C93.3118 120.341 93.369 120.652 93.412 120.727L93.3974 120.753C93.0326 121.366 92.0601 121.88 91.5089 122.325L89.6106 123.86C88.2573 124.955 86.8692 126.019 85.5567 127.163C84.7321 127.881 85.2452 129.167 86.1644 129.466C87.7055 129.969 89.2153 130.57 90.7333 131.138C91.3465 131.368 91.985 131.568 92.591 131.82L92.9599 131.98C93.104 132.045 93.0348 132.044 93.029 132.31C93.0232 132.589 92.9442 132.88 92.8988 133.154C92.3875 136.247 91.8455 139.335 91.2734 142.417C89.2498 153.316 86.8323 164.135 84.0752 174.871C82.6821 180.293 81.189 185.688 79.7654 191.102C78.3458 196.501 76.4776 201.823 74.6946 207.111C74.1905 208.603 76.5545 209.245 77.0453 207.76C79.1011 201.54 80.9816 195.267 82.9242 189.012C86.3742 177.898 89.0932 166.543 91.4981 155.161C92.69 149.519 93.7802 143.857 94.7675 138.176C94.9545 137.1 95.1377 136.025 95.3173 134.947L95.579 133.364C95.7584 132.234 95.8606 131.059 94.9834 130.165C94.127 129.294 92.6566 128.985 91.5297 128.576L91.4478 128.545C90.7307 128.277 90.0083 128.02 89.2888 127.754C90.3488 126.919 91.3956 126.066 92.4529 125.232C93.3059 124.558 94.1722 123.899 95.0129 123.211C95.7061 122.643 96.2714 121.913 96.3436 120.991C96.4174 120.046 96.0131 119.171 95.687 118.305L95.6556 118.222C95.3355 117.357 95.0145 116.493 94.6853 115.632L92.6481 110.303C91.3535 106.916 90.1136 103.502 88.752 100.142C88.2133 98.8118 87.6262 97.503 86.9325 96.2462C86.5981 95.6397 86.2393 95.0465 85.8495 94.4747C85.4129 93.8327 85.0163 93.5203 84.3396 93.1667C83.2572 92.6007 82.4078 91.6513 81.3212 91.068C80.2545 90.4954 79.1572 90.1896 77.9468 90.1764ZM74.4343 84.1339C74.3921 84.0628 74.2831 84.0951 74.2814 84.176C74.2533 85.8591 74.6532 87.5786 74.8986 89.2427C75.1457 90.9134 75.225 92.6759 75.5828 94.3284C75.5902 94.4053 75.6051 94.4813 75.6258 94.5556L75.6431 94.6127C75.7935 95.0754 76.186 95.4678 76.6669 95.5901C76.5157 96.4296 76.3735 97.27 76.2537 98.1144C76.0472 99.567 75.8596 101.021 75.6745 102.475L75.4531 104.221C75.244 105.867 75.0408 107.513 74.84 109.159C74.3293 109.373 73.808 109.55 73.2734 109.702C72.0439 110.055 70.7846 110.198 69.5155 110.323C66.9309 110.575 64.3265 110.694 61.7328 110.837L61.1768 110.869C58.2608 111.036 55.3292 111.065 52.4208 110.766C50.9789 110.618 49.5478 110.369 48.1415 110.016C47.4268 109.837 46.7319 109.568 46.0188 109.393C45.7825 109.335 45.571 109.2 45.3338 109.058C45.2281 108.925 45.081 108.824 44.8885 108.785L44.8364 108.776L44.7844 108.768L44.767 108.76L44.7678 108.766C44.6224 108.746 44.4836 108.746 44.353 108.764C44.301 107.48 44.2448 106.197 44.1737 104.914C43.9837 101.467 43.4598 97.8723 44.1597 94.4557C44.1828 94.3408 44.0267 94.3003 43.9862 94.4077C42.6137 98.0243 42.7682 101.979 42.6988 105.786C42.6311 109.509 42.6724 113.234 42.6906 116.958C42.4237 117.071 42.1866 117.224 41.9982 117.441C41.6214 117.872 41.5132 118.622 41.9982 119.038C42.213 119.222 42.4501 119.351 42.7021 119.44C42.7154 122.674 42.7385 125.909 42.7707 129.144C42.156 129.619 42.099 130.748 42.7939 131.216C42.9104 141.693 43.1004 152.169 43.2582 162.643L43.5887 184.618C43.6325 187.547 43.7052 190.474 43.7317 193.402L43.711 193.41L43.6375 193.444C43.5144 193.502 43.3309 193.595 43.2929 193.691C43.283 193.716 43.2805 193.733 43.2822 193.746C43.0806 193.774 42.8806 193.87 42.7071 194.034C42.2799 194.44 42.3667 195.052 42.7071 195.465L42.798 195.576C43.0104 195.833 43.4128 195.933 43.7416 195.88C43.7383 197.707 43.7267 199.535 43.7325 201.362C43.735 201.92 43.7433 202.478 43.7523 203.036L43.7755 204.375C43.7912 205.138 43.8589 206.108 44.6406 206.452C45.5222 206.838 46.3138 206.521 46.6707 205.625C46.7674 205.383 46.7467 205.156 46.7112 204.917C46.722 204.555 46.779 204.138 46.7715 203.804L46.7426 202.408C46.7377 202.193 46.7294 201.978 46.7228 201.763L46.7484 201.766C49.8833 201.918 53.0388 201.844 56.1786 201.842L57.5742 201.844C58.7393 201.844 59.9068 201.839 61.0702 201.794L61.5064 201.775C62.3773 201.735 63.2928 201.721 64.1959 201.644C64.0811 202.571 63.9737 203.499 63.8778 204.427C63.7869 205.308 64.6958 206.056 65.5056 206.056C66.4682 206.056 67.0193 205.299 67.1342 204.427C67.6779 200.313 67.9009 196.161 68.4207 192.045C68.8859 188.358 69.2899 184.663 69.6997 180.97L69.8369 179.738C71.3382 166.295 72.7958 152.847 74.1897 139.393L74.8391 133.105C75.4944 126.765 76.1546 120.425 76.7106 114.077C77.0288 110.447 77.3213 106.818 77.5972 103.184C77.7997 100.516 77.9269 97.8607 78.0096 95.1968C78.3359 94.8614 78.4995 94.3706 78.3549 93.8641C78.2707 93.5691 78.1723 93.2749 78.0682 92.9816C78.0748 92.6932 78.0814 92.4049 78.0872 92.1165C78.0922 91.8438 77.8154 91.7025 77.5931 91.748C77.1899 90.7713 76.7462 89.8029 76.3752 88.8354C75.7753 87.2696 75.2812 85.5832 74.4343 84.1339ZM107.932 101.056C101.662 97.1254 94.1981 94.297 86.7227 94.6011C86.5527 94.6085 86.5049 94.8672 86.6813 94.9068C90.6688 95.7975 94.7 96.8824 98.475 98.4606C102.261 100.045 105.861 102.177 109.067 104.739C114.983 109.467 119.581 115.616 122.608 122.548C124.382 126.608 125.625 130.895 126.71 135.183C127.859 139.722 128.805 144.31 129.593 148.924C131.147 158.041 132.052 167.257 132.534 176.49C133.024 185.881 132.822 195.279 133.171 204.672C133.232 206.299 135.557 206.268 135.675 204.672C136.467 193.992 136.028 183.143 135.296 172.472C134.638 162.878 133.488 153.305 131.636 143.867L131.475 143.049C129.744 134.316 127.656 125.371 123.471 117.462C119.899 110.711 114.383 105.101 107.932 101.056ZM20.8613 142.793C20.8283 142.699 20.7052 142.701 20.6721 142.793C19.9574 144.795 19.9318 147.054 19.7417 149.163L19.7268 149.325C19.5442 151.25 19.4071 153.177 19.2798 155.106L19.2319 155.829C18.7204 163.696 18.0801 171.554 17.1158 179.38C16.1549 187.177 14.8552 194.919 13.4505 202.645C13.2935 203.505 13.6744 204.381 14.5767 204.629C15.3716 204.848 16.392 204.358 16.5598 203.503C17.4323 199.067 18.1379 194.627 18.7667 190.154C19.8748 182.276 20.7019 174.363 21.2331 166.426C21.5 162.44 21.6645 158.455 21.7297 154.459C21.7595 152.606 21.7116 150.748 21.6124 148.897L21.5893 148.47C21.4802 146.577 21.4909 144.598 20.8613 142.793ZM88.6144 192.903C88.5306 192.857 88.4269 192.951 88.48 193.037C89.6941 195.011 91.3366 196.713 92.9241 198.391C94.5836 200.144 96.2022 201.95 97.8953 203.67C99.1186 204.911 101.086 202.908 99.7954 201.768C97.9801 200.167 96.0828 198.644 94.2352 197.079L93.4272 196.394C91.9123 195.113 90.3526 193.845 88.6144 192.903ZM30.9484 191.914C31.0393 191.742 30.8319 191.601 30.6915 191.715C29.7123 192.513 28.834 193.463 27.8888 194.303C26.9526 195.136 25.9809 195.913 24.9828 196.67C23.9805 197.431 22.9567 198.162 21.9049 198.853C21.0324 199.426 20.1334 199.885 19.2203 200.361C18.7973 200.415 18.4056 200.622 18.0917 201.017C17.5959 201.64 17.5438 202.814 18.2313 203.354L18.3544 203.451C19.1567 204.082 20.1094 204.159 20.8993 203.451C21.7818 202.661 22.6155 201.792 23.4624 200.956L23.7169 200.707C24.6266 199.822 25.5149 198.909 26.3519 197.954L27.1104 197.091C28.5159 195.487 29.9801 193.759 30.9484 191.914ZM35.4599 99.4397C35.6227 99.3323 35.5219 99.0415 35.3211 99.1109L34.9526 99.2381C33.4107 99.7744 31.8251 100.368 30.4262 101.193C28.9224 102.08 27.5343 103.135 26.2073 104.268C23.4624 106.613 21.1266 109.495 19.1419 112.501C15.1592 118.53 12.6961 125.436 10.7073 132.345C8.58623 139.713 6.95435 147.239 5.62074 154.786C4.26649 162.456 3.22208 170.195 2.53462 177.955C2.19669 181.776 1.96945 185.6 1.85542 189.436C1.79675 191.409 1.79842 193.38 1.81494 195.354C1.81908 195.861 1.81577 196.369 1.80998 196.876L1.79097 198.398C1.78023 199.361 1.66539 200.372 1.89343 201.312C2.26195 202.826 4.76308 202.544 4.68127 200.997C4.75645 200.482 4.75977 199.95 4.73993 199.417C4.75151 199.348 4.76474 199.278 4.77878 199.207C4.8201 199.002 4.78539 198.813 4.70525 198.65C4.69202 198.395 4.68045 198.14 4.67632 197.891C4.65979 196.874 4.66061 195.862 4.68871 194.847C4.7482 192.704 4.83331 190.563 4.91925 188.422C5.09111 184.143 5.33072 179.862 5.67693 175.595C6.88329 160.738 9.43069 145.798 13.7091 131.506C15.6955 124.868 18.4354 118.353 22.3635 112.618C24.1077 110.071 26.0751 107.72 28.2565 105.537C30.451 103.341 32.8703 101.156 35.4599 99.4397ZM65.0635 195.209L64.7669 197.354C64.619 198.427 64.4719 199.5 64.3331 200.574C63.3862 200.444 62.4186 200.39 61.5064 200.309C59.9101 200.168 58.303 200.099 56.7017 200.033C53.3908 199.896 50.0634 199.66 46.7492 199.676C46.7145 199.676 46.6823 199.679 46.6509 199.681L46.4865 195.448L48.8149 195.445C50.788 195.442 52.7604 195.424 54.7335 195.408C56.51 195.392 58.2873 195.39 60.0646 195.353L60.8256 195.335C62.1724 195.299 63.6605 195.374 65.0635 195.209ZM46.2906 189.065C46.3857 189.075 46.4823 189.085 46.5856 189.089C47.0467 189.109 47.5111 189.095 47.9729 189.099C48.9554 189.108 49.9386 189.114 50.9211 189.114C52.8868 189.114 54.8525 189.126 56.8173 189.15C58.8409 189.174 60.8628 189.209 62.8863 189.213C63.8663 189.215 64.8437 189.189 65.8237 189.161C65.6651 190.555 65.499 191.947 65.3164 193.336C63.7944 193.13 62.1575 193.234 60.6702 193.22L60.4769 193.217C58.4476 193.183 56.4158 193.208 54.3848 193.211C52.296 193.213 50.2072 193.22 48.1184 193.236L46.4022 193.251L46.3989 193.164C46.3485 191.799 46.3163 190.432 46.2906 189.065ZM66.5781 182.4C66.388 184.044 66.2096 185.692 66.0278 187.338C65.9063 187.319 65.784 187.304 65.6593 187.291C64.6777 187.187 63.6977 187.1 62.7128 187.039C60.7487 186.917 58.7847 186.853 56.8173 186.8C54.7946 186.745 52.7711 186.704 50.7476 186.675C49.7643 186.662 48.7827 186.663 47.7994 186.67C47.3384 186.673 46.8723 186.658 46.4121 186.689C46.3568 186.693 46.3047 186.699 46.2526 186.705L46.2179 184.232C46.2122 183.82 46.2055 183.408 46.1989 182.996C47.7184 183.09 49.2636 183.054 50.7814 183.054L51.1318 183.055C53.0396 183.064 54.9475 183.038 56.8554 182.998C58.8235 182.958 60.7868 182.893 62.7516 182.767C63.5473 182.716 64.3372 182.649 65.1288 182.561L65.5246 182.516C65.8691 182.475 66.2236 182.442 66.5781 182.4ZM46.0419 175.422C49.7015 175.713 53.3412 175.834 57.0107 175.87L57.561 175.875C60.8033 175.9 64.0728 176.033 67.3226 175.947C67.1284 177.633 66.9342 179.318 66.7392 181.003C66.274 180.982 65.8064 180.981 65.3511 180.965C64.4257 180.932 63.5035 180.923 62.5781 180.921C60.6702 180.917 58.7632 180.933 56.8554 180.93C54.8888 180.925 52.924 180.892 50.9583 180.856C49.3644 180.825 47.754 180.705 46.156 180.709L46.0419 175.422ZM45.8874 168.232C46.3113 168.373 46.812 168.382 47.3607 168.407L48.7777 168.477C49.4338 168.509 50.0907 168.54 50.7476 168.564C52.9372 168.644 55.126 168.719 57.3156 168.789C59.5597 168.86 61.8138 168.901 64.058 168.831C65.1569 168.796 66.2467 168.738 67.3432 168.647C67.6142 168.624 67.8902 168.609 68.167 168.59C67.9117 170.823 67.6555 173.056 67.3986 175.288C64.1646 174.891 60.9049 174.644 57.6742 174.233L54.7533 173.859C51.8333 173.487 48.9165 173.121 45.9858 172.813L45.8874 168.232ZM45.7313 160.962C46.3534 161.116 47.0624 161.108 47.6606 161.146L47.7705 161.154C48.9033 161.24 50.0378 161.282 51.1723 161.31C53.3966 161.365 55.6217 161.393 57.8469 161.406L59.1846 161.414C60.9677 161.425 62.75 161.43 64.5339 161.388C65.6783 161.361 66.8202 161.305 67.9629 161.248C68.3058 161.231 68.6562 161.219 69.0073 161.202C68.7685 163.315 68.5264 165.429 68.286 167.543C67.91 167.483 67.5324 167.438 67.173 167.377C66.2517 167.221 65.3321 167.097 64.4033 166.986C62.393 166.745 60.3728 166.572 58.3526 166.426C56.2794 166.275 54.2038 166.148 52.1299 166.002L50.6616 165.898C50.1716 165.865 49.6825 165.831 49.1925 165.802C48.3563 165.75 47.3838 165.808 46.5542 165.627C46.3295 165.532 46.08 165.511 45.8304 165.565L45.7313 160.962ZM45.5429 152.452C45.7585 152.726 46.0799 152.87 46.4633 152.919C48.4604 153.178 50.5088 153.22 52.5224 153.342L52.8769 153.365C54.9566 153.502 57.0371 153.609 59.1177 153.72C61.2552 153.833 63.3928 153.926 65.532 154C66.4401 154.032 67.3523 154.036 68.262 154.024L68.652 154.018C69.0255 154.012 69.4163 154.012 69.8088 154C69.5915 155.977 69.3725 157.954 69.1503 159.929C68.7504 159.886 68.3513 159.853 67.9637 159.812C66.821 159.691 65.6791 159.572 64.5339 159.482C62.3641 159.311 60.1918 159.207 58.0179 159.1C55.7936 158.99 53.5676 158.916 51.3433 158.812C50.2642 158.762 49.1859 158.699 48.1109 158.6C47.3565 158.531 46.4617 158.274 45.6751 158.369C45.6321 156.396 45.5875 154.425 45.5429 152.452ZM45.3677 144.83C45.4016 144.883 45.4412 144.934 45.49 144.981C46.3691 145.851 47.4524 145.783 48.6174 145.875L48.6893 145.88C49.8304 145.976 50.9731 146.068 52.1159 146.15C54.4013 146.315 56.6901 146.431 58.9789 146.533C61.3205 146.639 63.677 146.711 66.0212 146.664C67.5225 146.632 69.0941 146.638 70.6252 146.492C70.3905 148.669 70.1542 150.845 69.9154 153.023C69.4849 152.942 69.0519 152.879 68.6413 152.814C67.6068 152.652 66.5715 152.488 65.5312 152.368C63.4531 152.129 61.3734 151.905 59.2912 151.703C57.5098 151.53 55.7291 151.355 53.9469 151.197L52.8769 151.105C50.75 150.926 48.5968 150.631 46.4633 150.587C46.1113 150.579 45.7139 150.771 45.5123 151.073C45.4652 148.992 45.4165 146.911 45.3677 144.83ZM45.2198 138.659C45.7627 138.725 46.3485 138.688 46.8492 138.704C48.1167 138.745 49.3842 138.783 50.6509 138.821L58.2551 139.045C60.8446 139.122 63.4424 139.179 66.0327 139.143C67.1722 139.126 68.3157 139.125 69.4552 139.063L69.8344 139.04C70.3029 139.008 70.878 139.004 71.4399 138.947L70.7772 145.092C69.2535 144.871 67.6828 144.79 66.1724 144.66L65.8493 144.632C63.6217 144.429 61.3825 144.294 59.1507 144.143C56.8603 143.988 54.574 143.8 52.2877 143.607C51.145 143.511 50.0023 143.416 48.8604 143.31L48.7191 143.296C47.64 143.183 46.6261 142.944 45.6701 143.58C45.5305 143.673 45.4214 143.797 45.3462 143.936C45.3041 142.177 45.2636 140.418 45.2198 138.659ZM45.043 131.487C49.6742 131.674 54.3055 131.816 58.94 131.878C61.5486 131.913 64.1538 131.888 66.7623 131.834C67.8935 131.81 69.0338 131.756 70.1641 131.669L70.5872 131.635C71.1251 131.59 71.6894 131.557 72.2513 131.503C72.0191 133.616 71.7886 135.729 71.5597 137.842C71.0069 137.739 70.4293 137.692 69.9443 137.63L69.8344 137.615C68.6305 137.45 67.4151 137.353 66.2054 137.247C63.8497 137.039 61.4816 136.905 59.1193 136.791C56.7008 136.675 54.2807 136.576 51.8614 136.468L49.4421 136.36C49.0388 136.343 48.6348 136.324 48.2316 136.308C47.6556 136.283 47.0797 136.26 46.5038 136.236C46.2196 136.225 45.9238 136.186 45.6395 136.201L45.5586 136.19C45.5214 136.185 45.4883 136.182 45.4578 136.178C45.3809 136.119 45.2975 136.07 45.2091 136.033L45.1554 136.012L45.043 131.487ZM73.0106 124.691C72.7958 126.593 72.5826 128.496 72.3727 130.398C71.7125 130.323 71.0441 130.282 70.4136 130.225C69.142 130.111 67.8638 130.011 66.5888 129.952L64.039 129.834C62.3401 129.755 60.6405 129.679 58.94 129.617C54.2857 129.447 49.6313 129.252 44.9802 129.014C44.9471 127.725 44.9133 126.434 44.8794 125.143C45.1025 125.383 45.4247 125.54 45.8486 125.539C50.7319 125.526 55.6193 125.555 60.5017 125.474C62.9458 125.433 65.3874 125.375 67.8282 125.249C69.023 125.188 70.2244 125.063 71.4093 124.899C71.915 124.829 72.4686 124.778 73.0106 124.691ZM73.7923 117.914C73.5626 119.863 73.337 121.812 73.1155 123.761C72.5091 123.653 71.8827 123.595 71.3167 123.518C70.1013 123.353 68.8784 123.221 67.6539 123.152C65.2718 123.017 62.888 122.949 60.5017 122.898C55.6193 122.794 50.7319 122.795 45.8486 122.756C45.39 122.753 45.0496 122.935 44.8257 123.206C44.7918 121.989 44.7563 120.772 44.7191 119.555C45.1909 119.506 45.6586 119.436 46.0915 119.405C47.421 119.312 48.7521 119.227 50.0832 119.15C52.8603 118.992 55.6407 118.855 58.4203 118.734C61.2007 118.613 63.9819 118.495 66.7632 118.392L67.9794 118.347C69.9137 118.275 71.8803 118.185 73.7923 117.914ZM74.6665 110.577C74.4277 112.55 74.1922 114.523 73.9575 116.497L73.8865 117.109C71.5605 116.656 69.109 116.524 66.7632 116.424C63.9819 116.306 61.2048 116.244 58.4203 116.253C55.6391 116.262 52.862 116.327 50.0832 116.442C48.6943 116.5 47.3061 116.566 45.918 116.641C45.5363 116.662 45.0892 116.651 44.629 116.658C44.6183 116.348 44.61 116.037 44.5993 115.727C44.5571 114.471 44.5158 113.215 44.4729 111.959C45.4115 112.441 46.6319 112.635 47.5755 112.841L47.6829 112.865C49.2404 113.215 50.831 113.442 52.4208 113.58C55.5432 113.852 58.6979 113.751 61.8171 113.487L62.3633 113.44C65.1024 113.202 67.9423 112.901 70.5979 112.223C71.8629 111.901 73.1701 111.449 74.3037 110.794C74.4219 110.725 74.5433 110.653 74.6665 110.577ZM48.2927 87.1283C48.2654 87.0209 48.106 86.9969 48.0531 87.0969C47.6846 87.7976 47.5466 88.6387 47.2913 89.3898C47.0153 90.1979 46.7583 91.011 46.4542 91.8091C45.8188 93.4757 45.0694 95.077 44.1762 96.6213C43.2913 98.1499 45.7684 99.2406 46.4195 97.5674C47.0921 95.8405 47.6449 94.0541 47.9787 92.2297C48.1423 91.339 48.2877 90.4359 48.3348 89.5311C48.3753 88.7544 48.4844 87.886 48.2927 87.1283Z" fill="black"/>
<path fill-rule="evenodd" clip-rule="evenodd" d="M30.2091 53.2187C30.2785 49.3066 30.3553 45.3163 30.9362 41.4422C31.5047 37.6547 33.0688 34.2313 35.7558 31.481C41.4621 25.639 49.7347 24.2121 57.4355 22.9044L70.6005 20.6686C74.6178 19.9867 78.9029 18.8966 82.9607 19.8637C84.9603 20.3403 86.6583 21.4474 88.2104 22.7574C89.7065 24.0199 91.3149 25.3759 92.3286 27.0745C93.344 28.7756 93.6933 30.7641 94.0234 32.688C94.3958 34.8572 94.685 37.0432 94.8905 39.2345C95.3023 43.6248 95.3585 48.048 95.0598 52.4474C94.9151 54.5812 94.6848 56.7091 94.3908 58.8269C94.2451 59.8779 94.0803 60.9256 93.8943 61.9692C93.8394 62.2774 93.7977 62.6186 93.7415 62.9624C94.1568 64.1439 94.3928 65.3676 94.3737 66.5864C94.3177 70.1757 91.2896 72.4347 88.2368 73.6485C86.4667 74.3517 84.6166 74.8293 82.8773 75.6151C81.0471 76.4422 79.8019 77.7815 78.5509 79.3101C76.1655 82.2261 73.4726 84.8461 70.3989 87.0316C63.8813 91.667 55.6252 93.8591 47.7169 92.195C45.8198 91.7959 43.9053 91.1762 42.1991 90.2417C40.3986 89.256 39.0444 87.8265 37.9074 86.1368C35.7963 83.0003 34.2818 79.4688 33.1365 75.8745C31.9682 72.2083 31.1386 68.5356 30.6867 64.7124C30.2355 60.9016 30.1405 57.0529 30.2091 53.2187Z" fill="white"/>
<path fill-rule="evenodd" clip-rule="evenodd" d="M72.2218 7.04088C66.7733 6.2912 59.2534 8.72779 56.5408 13.641C43.5865 10.5859 27.2486 10.4859 16.5724 20.6559C5.43178 32.7199 19.4247 48.6264 28.7037 52.2125C28.0278 55.497 29.0813 76.5371 36.5343 85.9228C42.4496 93.8748 56.2235 97.5451 62.5974 88.0463L62.6469 87.9686C63.3303 86.8713 62.742 86.9069 62.0413 87.7224C55.7996 93.213 47.313 93.3071 40.7739 87.5125C28.5186 76.9214 29.782 50.9514 35.6138 35.9276C52.2202 34.103 69.9999 39.1382 81.4702 51.6435L80.6943 56.3142C80.5621 57.1107 80.4118 57.9056 80.2977 58.7037C80.2242 59.216 80.2159 59.7242 80.5704 60.139C81.7404 61.5065 83.7127 59.4515 85.3347 58.6343C85.8141 58.5666 86.294 58.541 86.7645 58.574C94.5602 59.5788 93.0243 74.707 84.4564 72.0555C83.7367 71.6068 83.1178 71.7431 82.8385 72.3942C80.7968 74.2657 79.45 77.603 76.0565 80.8181C74.86 82.0236 73.7702 83.0325 72.4234 84C71.6326 84.7999 69.2464 85.6162 70.0024 86.9853C71.4335 90.1012 79.8706 80.314 81.362 77.6072C86.0354 79.4531 91.2148 78.8259 96.058 78.3748C121.609 77.0461 118.198 50.102 97.2545 33.0908C93.3122 30.1874 88.9625 27.8189 84.4415 25.9962C83.8243 25.7473 84.0936 24.7334 84.7199 24.9858C87.7113 26.1919 90.6277 27.6276 93.4078 29.2892L93.412 28.2959C93.4161 26.6227 93.3898 24.8807 93.0993 23.3519C92.9541 22.2926 92.7099 21.1612 92.3339 20.31C91.869 17.7004 84.5869 8.74316 72.2218 7.04088ZM87.1058 62.0468C86.7112 61.6725 85.9748 62.1195 85.6235 62.108C84.7257 62.2311 83.8722 62.6103 83.207 63.0788C82.7675 63.3251 82.4593 63.5564 82.2023 63.7688L82.1948 63.7671C82.1973 63.7671 82.1998 63.7688 82.2015 63.7696L82.1775 63.7861C81.8024 64.0522 80.4308 65.5519 81.2975 65.1487C81.362 65.0652 81.4281 64.9842 81.495 64.9049C81.5024 64.9156 81.5124 64.9264 81.5239 64.9371L81.4752 65.009C80.739 66.117 82.0106 64.9495 82.2064 64.6397C82.2155 64.6471 82.2254 64.6521 82.2362 64.6578L81.9817 64.9677C81.9461 65.0115 81.918 65.047 81.8949 65.0768L81.8404 65.1288C80.9893 65.9658 80.9629 66.7194 81.9519 65.4816C81.9131 65.5395 81.8817 65.6014 81.8776 65.6568L81.8189 65.7312C81.0422 66.7326 81.6735 66.3773 82.0602 65.9493L82.0924 65.9121L82.0858 65.9229C81.7264 66.4756 82.4386 66.0873 82.565 65.7915L82.57 65.7783C82.7071 65.6659 82.7914 65.5403 82.8203 65.5089L82.8261 65.5031C83.4937 64.819 84.4621 64.2398 85.2843 63.9762C85.4033 63.9539 85.5239 63.9357 85.6461 63.9225C86.1406 63.8126 86.6406 63.7365 87.1458 63.6961C87.2076 63.6886 87.2702 63.6432 87.317 63.5845C88.081 63.5589 87.8451 63.2457 87.5282 63.1871L87.5226 63.1863L87.5855 63.1813C88.0758 63.1334 88.4106 62.9574 87.9149 62.8491L87.8521 62.8367C87.8597 62.8244 87.8665 62.8128 87.8731 62.8004C88.2977 62.7541 88.0206 62.341 87.785 62.441C87.8841 62.1171 87.431 62.2782 87.3744 62.2303C87.3313 62.1823 87.2777 62.1402 87.2468 62.1377C87.1103 62.0419 87.1764 62.0501 87.1058 62.0468ZM84.5076 56.7967L84.6076 56.8545C84.6877 56.9016 84.7703 56.933 84.8538 56.9512C84.7365 57.0016 84.62 57.0553 84.5059 57.1132C84.5076 57.0429 84.5084 56.9719 84.5084 56.9016L84.5076 56.7967Z" fill="black"/>
<path fill-rule="evenodd" clip-rule="evenodd" d="M45.6652 78.1855C46.9509 78.5582 48.3307 78.5912 49.642 78.2062C50.831 77.8575 52.0514 77.0891 52.9265 76.0727C53.704 75.1696 54.2072 74.0723 54.1874 72.9015C54.1857 72.7677 54.1378 72.6561 54.0642 72.5694C53.9849 72.476 53.8742 72.4115 53.756 72.3843C53.6337 72.3554 53.5049 72.3653 53.395 72.4157C53.2958 72.4603 53.2107 72.5371 53.1578 72.6487C53.0231 72.8255 52.8893 72.9998 52.7546 73.1692C51.6738 74.5045 50.6269 75.5026 49.0008 75.8612C48.1184 76.0554 47.2376 75.9695 46.4295 75.6728C45.5636 75.3555 44.7819 74.7978 44.1688 74.0839C43.8912 73.7608 43.5648 73.6295 43.245 73.627C42.8823 73.6245 42.5237 73.7931 42.2543 74.0624C41.9891 74.3268 41.8115 74.6863 41.7949 75.063C41.7809 75.3927 41.8891 75.7381 42.175 76.0455C43.1186 77.0593 44.3415 77.8021 45.6652 78.1855ZM45.704 61.4568C44.3861 62.2583 42.3775 64.1273 43.7953 66.1145C45.4644 67.867 47.868 65.8576 49.0521 64.9495C50.1502 64.2455 51.3846 66.0559 50.365 66.878C41.8073 73.2163 38.3345 61.6667 45.0372 60.5141C45.7751 60.3876 46.0494 61.209 45.704 61.4568ZM58.0353 57.9295C58.4592 57.6585 58.9574 57.5659 59.5094 57.8171C59.9415 58.0138 60.6984 58.6682 61.2247 59.5283C61.5858 60.1174 61.8411 60.8082 61.7882 61.5271C61.7758 61.6948 61.837 61.8179 61.9345 61.9088C62.0113 61.9807 62.1229 62.0336 62.2526 62.0501C62.3633 62.0641 62.4872 62.0518 62.588 62.0195C62.7797 61.96 62.8814 61.8353 62.9194 61.7345C63.2887 60.7537 63.1301 59.6605 62.7161 58.674C62.1584 57.342 61.1454 56.2265 60.4811 55.8671C59.3449 55.2515 58.0047 55.2234 56.8678 55.8506C55.8994 56.3844 55.2937 57.2462 54.6914 58.1245C54.5633 58.3112 54.4361 58.4963 54.3047 58.6781C54.0419 59.0433 54.0155 59.4052 54.1171 59.7151C54.2303 60.0596 54.5179 60.3496 54.8781 60.5008C55.2111 60.6413 55.597 60.6611 55.939 60.5174C56.2274 60.3951 56.4926 60.1579 56.6604 59.7547C56.9421 59.0764 57.4131 58.3277 58.0353 57.9295ZM36.5175 59.4391C36.8084 59.5903 37.0348 59.6366 37.357 59.5399C37.5347 59.4862 37.7107 59.3837 37.8487 59.2457C37.985 59.1094 38.0833 58.9392 38.1222 58.7508C38.2163 58.2864 38.47 57.851 38.8327 57.5676C39.1426 57.3247 39.5334 57.1966 39.9672 57.2685C40.4349 57.347 40.8803 57.6469 41.1876 58.0014C41.2901 58.1195 41.3711 58.2542 41.4512 58.3881C41.6032 58.6376 41.7495 58.8698 41.9585 59.0532C42.0379 59.1234 42.1568 59.1714 42.2725 59.1714C42.3188 59.1714 42.3667 59.1639 42.4122 59.1499C42.8782 58.6822 42.9674 58.3269 42.9525 57.9758C42.9368 57.6064 42.7914 57.2329 42.5559 56.8843C42.0048 56.0671 40.9587 55.3961 40.2523 55.2441C39.2847 55.0367 38.3246 55.2862 37.5545 55.8266C36.7621 56.3827 36.1746 57.2462 35.992 58.2187C35.9474 58.4533 35.9664 58.7062 36.0557 58.9251C36.1432 59.14 36.2944 59.3234 36.5175 59.4391ZM55.9027 49.2125C56.4827 49.7782 57.1694 49.8659 57.8651 49.9438C58.251 49.9875 58.5592 50.0227 58.8624 50.0912C59.6961 50.2795 60.5207 50.5631 61.2726 50.9715C62.0584 51.3985 62.9153 51.9133 63.5308 52.5729C63.6779 52.7299 63.8159 52.8946 63.9539 53.0596C64.0803 53.2102 64.2018 53.3551 64.3298 53.4948C64.4769 53.6553 64.6165 53.8234 64.7554 53.9912C64.8413 54.1328 64.8586 54.1676 64.876 54.2038C64.9016 54.2583 64.9322 54.3192 64.9669 54.3846C65.014 54.4741 65.0693 54.5722 65.1272 54.661C65.2239 54.8234 65.2759 54.8682 65.3205 54.8882C65.3949 54.9214 65.4659 54.9376 65.5337 54.9288C65.5982 54.9205 65.6585 54.8897 65.7188 54.8392C66.0162 54.5874 66.1047 54.174 66.0956 53.7352C66.0815 53.0694 65.8361 52.3322 65.6097 51.879C65.0834 50.8261 64.3538 49.7315 63.4763 48.9455C62.4748 48.0484 61.3792 47.3693 60.1216 46.9013C59.3391 46.6104 58.4344 46.3434 57.5825 46.3771C56.9686 46.4014 56.3836 46.5837 55.9002 47.0391C55.6036 47.3187 55.4606 47.7163 55.4606 48.1136C55.4606 48.5188 55.6085 48.9264 55.9027 49.2125ZM35.3368 54.393C35.374 54.4535 35.4252 54.4953 35.4822 54.5203C35.5417 54.5466 35.6078 54.5541 35.6723 54.5433C35.7359 54.5326 35.7962 54.5038 35.8441 54.4597C35.8896 54.4175 35.9251 54.3616 35.9408 54.2929C36.3258 52.5998 37.0744 51.3401 38.6708 50.5277C39.4566 50.1281 40.3605 49.8742 41.2157 49.6717C41.4636 49.6129 41.7264 49.5748 41.9908 49.5361C42.8195 49.4151 43.6549 49.2764 44.1944 48.6063C44.52 48.2025 44.6571 47.6863 44.5795 47.2141C44.5068 46.7695 44.2473 46.3619 43.7755 46.1175C42.5997 45.5096 41.1397 46.1062 39.9524 46.6143C39.8648 46.652 39.778 46.689 39.6937 46.7247C38.5328 47.2148 37.4744 47.8617 36.6043 48.7869C35.9144 49.5209 35.274 50.6058 35.017 51.722C34.8022 52.6507 34.8526 53.5987 35.3368 54.393Z" fill="black"/>
<path fill-rule="evenodd" clip-rule="evenodd" d="M45.5125 68.2612C47.4542 67.3862 50.9403 68.1497 52.2053 68.4529C55.1476 69.1586 58.1082 70.6839 59.0229 73.0743C60.0532 75.7671 57.9966 76.6156 57.6942 76.4768C55.6575 76.6206 53.2315 75.3391 51.0973 75.0086C49.3646 74.7384 47.5369 74.502 45.9132 73.5808C44.7284 74.2327 42.0512 74.5855 39.8905 75.1556C38.0504 75.6415 37.2531 76.6941 35.5468 76.4702C33.5027 76.2025 34.3397 71.9001 36.6185 70.1575C39.1122 68.2505 43.3295 67.4771 45.5125 68.2612ZM41.6687 86.654C43.3675 87.068 43.4815 83.344 43.6716 82.0286C43.8203 81.0007 44.6581 78.35 46.7841 78.464C48.9093 78.5789 49.7083 80.7999 49.6009 82.1806C49.5307 83.0763 48.7052 87.6141 51.3394 88.1876C53.0183 88.1818 54.9609 88.0686 56.7267 87.743C58.8047 87.2721 61.5066 85.6237 62.2205 88.8701C62.4775 90.0384 53.3232 93.5096 49.2613 93.8236C45.1423 94.6589 40.3227 93.3741 37.3894 90.2219C36.7218 89.5047 34.8429 86.5276 34.709 85.798C34.4281 84.2661 35.0792 83.2795 36.9746 83.8199C38.3132 84.5355 40.5764 86.388 41.6687 86.654Z" fill="black"/>
<path fill-rule="evenodd" clip-rule="evenodd" d="M33.4547 64.4306C36.0748 65.6931 39.7302 63.8307 41.4918 61.8807C42.133 61.171 42.6271 59.1392 42.3809 57.851C41.7124 54.3616 39.2022 52.2674 36.5524 51.5523C32.8788 50.5607 29.182 53.0726 29.6125 56.0365C30.0215 58.8458 30.6404 62.921 33.4547 64.4306ZM51.2873 57.7279C51.4971 61.5304 54.5494 64.8586 58.1982 65.8452C64.0763 67.4862 66.9815 63.3523 68.2969 58.8987C68.4283 58.4567 68.7356 57.1057 67.9102 55.9473C64.6663 51.3902 56.7737 52.167 52.8316 53.4181C51.6781 54.5219 51.2063 56.115 51.2873 57.7279ZM30.6082 51.1693C30.6098 51.1716 30.6123 51.1735 30.614 51.1758C30.6272 51.1676 30.6404 51.1592 30.6545 51.1512C30.6396 51.1575 30.6231 51.1628 30.6082 51.1693ZM25.6902 51.6089C26.0315 47.7372 38.1752 49.2197 39.5947 49.537C43.4691 50.677 46.8155 53.7785 51.1476 52.4151C55.6368 47.4096 70.7517 48.8451 73.9205 51.3949C74.5204 51.1595 75.25 51.2858 76.0225 51.5079C79.9911 51.3645 98.1079 52.7331 94.4023 57.7998C93.8398 58.1906 93.2779 57.7932 93.2623 56.9892C73.9445 50.0132 75.8168 56.5472 73.5264 55.7845C73.176 55.8853 72.8116 55.9489 72.4919 56.0159C70.7187 56.5868 70.1163 56.41 69.8833 58.4013C68.2787 73.7782 47.8095 68.4711 49.4885 55.858C47.826 55.7672 46.3726 55.0475 44.6151 55.7498C43.3947 67.6316 33.8364 68.1108 30.9602 63.9919C28.7912 61.1338 29.6514 56.819 26.6702 54.5704C25.4936 55.5556 25.4176 52.2303 25.6902 51.6089Z" fill="black"/>
</g>
<mask id="mask1_57_66" style="mask-type:alpha" maskUnits="userSpaceOnUse" x="99" y="0" width="136" height="200">
<rect x="99" width="135.398" height="200" fill="#D9D9D9"/>
</mask>
<g mask="url(#mask1_57_66)">
<path fill-rule="evenodd" clip-rule="evenodd" d="M102.147 150.255C103.397 146.412 101.908 141.974 102.881 137.832C103.214 136.193 103.848 130.106 104.485 126.546C104.841 124.555 102.711 123.937 102.383 123.143C100.08 116.003 116.885 99.208 117.911 98.5885C119.448 97.7 120.809 96.9354 122.311 96.0275C126.692 94.4876 131.946 90.2044 135.919 92.9549C142.801 82.7062 140.079 70.0788 143.813 68.5779C147.548 67.077 158.576 64.0434 164.882 67.9168C168.66 70.7142 168.382 75.5301 170.106 79.5009C171.119 81.3708 171.616 84.0788 172.794 85.2982C176.797 89.4407 181.79 90.1549 187.371 90.8575C187.796 90.9115 188.243 89.7549 188.657 89.8974C198.071 93.1531 209.026 94.1027 219.688 112.33C221.194 114.937 225.256 119.119 223.898 122.132C232.847 142.95 241.653 189.81 217.097 201.496C216.312 201.998 210.987 199.304 210.119 199.329C208.673 199.371 211.444 202.884 210.119 202.258C200.392 202.996 146.866 201.092 126.35 202.996C112.241 202.891 103.305 205.366 100.047 202.891C101.35 199.742 101.289 196.37 100.877 193.042C97.8789 190.81 101.586 175.079 101.272 170.473C98.4647 167.107 100.7 154.483 102.147 150.255Z" fill="white"/>
<path fill-rule="evenodd" clip-rule="evenodd" d="M106.62 127.214C107.966 129.173 109.203 131.189 110.32 133.286C110.897 134.367 111.435 135.47 111.919 136.596C112.019 134.162 112.041 131.7 112.326 129.29C112.346 129.116 112.635 129.032 112.666 129.243C112.981 131.428 113.032 133.67 113.151 135.879C113.288 135.837 113.438 135.812 113.605 135.812C115.22 135.812 116.812 135.945 118.421 136.076C119.143 136.135 119.897 136.179 120.633 136.294C120.041 135.64 119.489 134.949 118.98 134.227C118.46 133.492 117.867 132.343 118.772 131.637C119.771 130.858 121.731 131.877 122.697 132.274C123.187 132.475 123.666 132.694 124.139 132.926C124.735 131.254 126.565 131.033 128.132 131.263C129.25 131.428 130.335 131.811 131.424 132.102C132.807 132.471 134.196 132.819 135.589 133.146C138.099 133.734 140.627 134.247 143.166 134.692C143.233 134.614 143.326 134.553 143.451 134.521C144.32 134.304 145.279 134.471 146.171 134.488C147.088 134.504 148.005 134.503 148.921 134.484C150.559 134.45 152.196 134.437 153.834 134.409C154.299 134.127 154.889 133.721 155.034 133.189C155.214 132.527 154.651 131.792 154.389 131.227C153.385 129.06 153.034 126.635 153.428 124.274C153.497 123.854 153.643 123.394 153.851 122.963C152.058 123.155 150.287 123.285 148.482 123.344C144.881 123.461 141.278 123.584 137.674 123.611C130.468 123.665 123.263 123.665 116.057 123.612C111.982 123.582 107.918 123.545 103.849 123.337C104.18 123.758 104.503 124.187 104.818 124.623C104.882 124.604 104.967 124.639 104.958 124.719C104.955 124.748 104.951 124.775 104.948 124.804C105.522 125.606 106.075 126.422 106.62 127.214ZM114.632 201.742C116.306 201.689 117.981 201.635 119.656 201.581C122.943 201.477 126.229 201.373 129.516 201.268C136.027 201.06 142.538 200.86 149.051 200.681C155.547 200.502 162.047 200.312 168.545 200.515C175.058 200.718 181.555 201.243 188.056 201.666C191.67 201.9 195.287 202.104 198.908 202.201C202.356 202.293 205.835 202.153 209.278 202.399C209.394 201.548 209.309 200.698 209.322 199.85C208.192 199.197 207.084 198.504 205.988 197.822C201.994 195.337 198.218 192.526 194.657 189.452C194.11 188.98 193.573 188.496 193.042 188.009C193.411 188.818 193.115 189.86 192.055 190.202C190.763 190.62 189.44 190.471 188.097 190.439C186.734 190.407 185.371 190.377 184.008 190.348C181.343 190.292 178.679 190.241 176.014 190.196C170.809 190.109 165.603 190.044 160.397 190.003C149.924 189.918 139.458 190.06 128.985 190.25C126.041 190.303 123.099 190.369 120.154 190.302C118.682 190.269 117.202 190.258 115.73 190.179C114.551 190.115 113.366 189.948 112.187 189.798C112.038 191.852 111.882 193.905 111.709 195.958C111.595 197.312 111.477 198.667 111.36 200.022C111.313 200.581 111.31 201.151 111.231 201.682C112.362 201.744 113.487 201.778 114.632 201.742ZM113.481 143.746C113.522 145.319 113.543 146.891 113.555 148.465C113.691 148.387 113.844 148.33 114.017 148.304C115.848 148.024 117.807 148.236 119.66 148.267C121.451 148.297 123.248 148.288 125.037 148.372C126.83 148.457 128.622 148.558 130.414 148.65C131.256 148.695 132.088 148.732 132.922 148.846C133.494 148.924 134.225 148.919 134.835 149.081C132.274 146.598 129.725 144.102 127.169 141.612C127.093 141.537 127.037 141.458 126.999 141.378C125.295 140.339 123.659 139.17 122.178 137.832C121.004 138.285 119.666 138.342 118.421 138.443C116.811 138.573 115.221 138.706 113.605 138.706C113.496 138.706 113.394 138.696 113.297 138.676C113.376 140.366 113.436 142.055 113.481 143.746ZM180.011 174.287C176.098 175.536 171.86 175.522 167.79 175.773C163.452 176.04 159.12 176.261 154.777 176.431C146.102 176.767 137.433 177.226 128.759 177.59C123.805 177.798 118.851 178.028 113.899 178.278C113.548 178.295 113.213 178.205 112.918 178.04C112.751 181.303 112.557 184.564 112.329 187.823C112.302 188.23 112.27 188.637 112.241 189.045C114.572 188.753 116.885 188.473 119.233 188.274C121.87 188.051 124.505 187.864 127.146 187.689C132.292 187.347 137.446 186.89 142.601 186.724C153.11 186.384 163.642 186.499 174.155 186.574C177.129 186.596 180.104 186.624 183.078 186.66C184.565 186.678 186.052 186.698 187.539 186.72C189.034 186.742 190.64 186.586 192.055 187.108C192.069 187.112 192.08 187.12 192.093 187.125C187.824 183.079 183.999 178.606 180.011 174.287ZM166.259 161.35C159.721 162.54 153.081 162.458 146.455 162.576C139.674 162.697 132.884 162.617 126.103 162.631C122.251 162.639 118.365 162.808 114.527 162.466C114.073 162.425 113.721 162.253 113.471 162.009C113.401 166.093 113.273 170.175 113.096 174.256C113.345 174.15 113.617 174.086 113.899 174.069C122.565 173.559 131.231 173.096 139.908 172.814C148.577 172.531 157.258 172.196 165.931 172.301C170.165 172.352 174.641 172.081 178.816 173.004C177.229 171.318 175.608 169.663 173.913 168.078C171.442 165.767 168.805 163.603 166.259 161.35ZM161.265 156.542C161.256 156.532 161.251 156.52 161.244 156.511C161.221 156.527 161.192 156.54 161.155 156.539C155.035 156.401 148.169 158.332 142.446 155.368C139.89 154.045 137.774 151.954 135.72 149.943C135.72 149.958 135.718 149.973 135.717 149.989C135.704 150.151 135.635 150.348 135.469 150.42C134.794 150.716 134.004 150.735 133.279 150.842C132.445 150.963 131.626 151.034 130.785 151.084C128.931 151.196 127.077 151.313 125.222 151.419C123.372 151.523 121.512 151.532 119.66 151.578C117.802 151.624 115.856 151.85 114.016 151.584C113.848 151.559 113.697 151.506 113.564 151.433C113.561 153.813 113.54 156.193 113.517 158.572C113.513 158.959 113.506 159.347 113.502 159.734C113.75 159.506 114.091 159.348 114.527 159.309C117.937 159.009 121.374 159.143 124.796 159.154C128.157 159.165 131.518 159.176 134.879 159.188C141.665 159.21 148.445 159.276 155.23 159.405C158.53 159.468 161.815 159.746 165.066 160.28C163.75 159.081 162.47 157.845 161.265 156.542ZM214.437 199.815C215.69 200.198 216.934 200.032 218.189 200.295C218.266 200.311 218.338 200.341 218.403 200.381C222.162 198.773 224.668 195.55 226.382 191.936C228.19 188.128 229.436 184.058 230.27 179.931C231.991 171.423 231.994 162.602 231.104 153.995C230.228 145.539 228.496 137.128 226.023 128.996C224.325 123.412 222.161 117.772 219.157 112.681C215.688 115.005 212.998 118.353 210.463 121.626C207.434 125.536 204.705 129.675 202.262 133.975C202.515 134.712 202.554 135.635 202.675 136.294C202.909 137.563 203.12 138.849 203.285 140.129C203.64 142.866 203.98 145.604 204.342 148.34C205.058 153.75 205.913 159.145 206.858 164.519C206.934 164.955 206.812 165.323 206.587 165.599C208.461 166.588 210.31 167.619 212.112 168.738C216.073 171.196 219.775 174.061 222.682 177.735C222.757 177.83 222.639 177.958 222.545 177.872C216.312 172.11 208.569 168.493 200.966 164.918C197.081 163.091 193.214 161.235 189.487 159.099C185.589 156.866 181.871 154.342 178.308 151.606C174.239 148.483 170.409 145.069 166.819 141.405C166.397 140.973 166.498 140.433 166.817 140.092C166.709 140.058 166.622 139.965 166.617 139.809C166.531 137.417 165.812 135.378 164.407 133.443C163.103 131.646 161.44 130.166 159.941 128.54C159.274 127.818 158.637 127.066 158.069 126.262C157.483 125.436 157.128 124.524 156.618 123.661C156.022 122.652 155.516 123.167 155.241 124.081C154.928 125.116 154.947 126.327 155.073 127.392C155.205 128.518 155.549 129.615 156.042 130.633C156.505 131.589 157.04 132.561 156.728 133.657C156.215 135.458 154.017 136.5 152.351 136.906C150.497 137.358 148.556 137.27 146.678 137.035C144.327 136.742 141.985 136.312 139.66 135.856C136.968 135.327 134.291 134.717 131.636 134.027C130.388 133.703 129.148 133.277 127.888 133.008C127.438 132.912 126.606 132.769 126.078 133.004C132.867 137.052 140.27 139.75 147.788 142.1C148.721 142.392 148.339 143.804 147.382 143.57C139.306 141.594 131.707 137.927 124.476 133.912C124.366 133.85 124.272 133.755 124.203 133.643C123.475 133.387 122.735 133.164 121.981 132.981C121.644 132.898 119.91 132.327 119.694 132.546C119.386 132.858 120.45 133.869 120.715 134.163C122.605 136.258 124.852 137.966 127.286 139.38C129.753 140.812 132.38 141.955 135.018 143.034C137.974 144.242 141.097 145.191 143.97 146.579C145.112 147.131 144.311 149.004 143.109 148.625C141.559 148.135 140.053 147.415 138.548 146.803C137.268 146.284 135.989 145.765 134.717 145.227C133.83 144.853 132.95 144.466 132.077 144.062C133.384 145.292 134.69 146.522 135.997 147.752C138.259 149.883 140.409 152.311 143.174 153.804C145.906 155.281 149.023 155.453 152.065 155.421C153.592 155.405 155.112 155.357 156.639 155.418C158.246 155.483 159.673 155.73 161.196 156.235C161.224 156.245 161.244 156.262 161.261 156.281C161.314 156.216 161.405 156.183 161.498 156.239C165.636 158.687 169.408 161.861 173.035 164.999C176.774 168.234 180.293 171.673 183.645 175.306C186.853 178.784 190.036 182.274 193.527 185.473C196.936 188.597 200.579 191.435 204.383 194.059C206.456 195.49 208.58 196.867 210.777 198.099C211.952 198.757 213.144 199.419 214.437 199.815ZM214.089 105.662C212.607 103.996 211.012 102.453 209.325 101.026C208.58 101.246 207.798 101.307 207.011 101.316C205.809 101.327 204.604 101.378 203.402 101.366C201.088 101.342 198.774 101.268 196.459 101.256C191.726 101.23 186.991 101.228 182.258 101.27C181.638 101.275 181.19 101.01 180.914 100.625C179.956 101.712 178.968 102.773 177.973 103.818C176.355 105.515 174.63 107.135 172.794 108.611C173.151 108.613 173.509 108.617 173.864 108.614C175.502 108.603 177.139 108.593 178.776 108.584C182.061 108.566 185.347 108.552 188.632 108.543C195.164 108.527 201.716 108.581 208.24 108.915C210.05 109.008 211.875 109.046 213.679 109.222C214.658 109.318 215.635 109.43 216.613 109.534C216.813 109.555 217.005 109.582 217.193 109.612C216.235 108.236 215.204 106.914 214.089 105.662ZM187.929 90.8195C187.973 90.8487 188.021 90.8761 188.063 90.908C188.159 90.9797 188.144 91.1106 188.031 91.154C187.88 91.2133 187.722 91.2575 187.559 91.2929C187.064 92.0115 186.677 92.8991 186.407 93.3496C185.631 94.6425 184.738 95.8744 183.83 97.077C183.648 97.3186 183.462 97.5576 183.275 97.7956C187.671 97.785 192.066 97.8071 196.459 97.9735C198.773 98.0611 201.094 98.1354 203.402 98.3089C204.352 98.3797 205.3 98.5 206.246 98.6186C201.322 95.0575 195.784 92.3381 190.046 90.3195C190.054 90.3283 190.062 90.3345 190.07 90.3434C190.196 90.4832 190.008 90.6655 189.865 90.5478C189.119 89.9301 188.471 90.2204 187.929 90.8195ZM165.715 132.677C165.84 132.866 165.963 133.062 166.082 133.263C166.371 132.975 166.774 132.782 167.292 132.766C173.051 132.587 178.808 132.43 184.571 132.426C187.413 132.424 190.28 132.328 193.119 132.469C194.544 132.54 195.968 132.624 197.393 132.704C198.389 132.761 199.447 132.831 200.419 133.119C202.661 129.197 205.149 125.427 207.867 121.821C201.701 122.578 195.43 122.497 189.23 122.707C182.205 122.945 175.177 122.996 168.15 123.163C166.222 123.209 164.295 123.258 162.367 123.312C161.373 123.341 160.378 123.369 159.383 123.399C159.072 123.409 158.751 123.418 158.428 123.409C158.452 123.459 158.477 123.51 158.501 123.559C159.043 124.68 159.726 125.712 160.52 126.669C162.21 128.704 164.251 130.458 165.715 132.677ZM173.271 144.758C173.484 144.166 174.004 143.709 174.832 143.747C179.551 143.961 184.278 144.11 188.992 144.42C191.288 144.572 193.593 144.674 195.886 144.875C197.068 144.979 198.248 145.172 199.426 145.325C200.233 145.43 201.078 145.552 201.852 145.839C201.702 144.181 201.57 142.522 201.455 140.86C201.362 139.525 201.334 138.178 201.341 136.839C201.345 136.162 201.368 135.481 201.401 134.804C201.331 134.817 201.262 134.824 201.193 134.816C201.072 134.801 200.96 134.787 200.855 134.758C199.77 135.183 198.542 135.277 197.393 135.359C196.03 135.456 194.667 135.559 193.304 135.657C190.404 135.864 187.477 135.85 184.571 135.945C178.85 136.132 173.128 136.24 167.405 136.394C167.67 137.533 167.68 138.704 167.255 139.806C167.551 139.708 167.891 139.754 168.182 140.042C169.831 141.671 171.528 143.242 173.271 144.758ZM189.917 156.876C190.033 156.554 190.253 156.258 190.513 156.057C191.514 155.286 193.34 155.729 194.541 155.789C195.963 155.858 197.385 155.927 198.807 155.997C199.239 156.018 201.441 156.13 203.059 156.475C202.724 153.95 202.421 151.421 202.15 148.887C202.093 148.355 202.041 147.823 201.988 147.291C201.226 147.536 200.398 147.626 199.612 147.664C198.434 147.719 197.251 147.814 196.072 147.833C193.716 147.87 191.348 147.754 188.992 147.714C184.749 147.644 180.506 147.442 176.266 147.274C180.523 150.731 185.022 153.886 189.715 156.756C189.782 156.796 189.85 156.835 189.917 156.876ZM203.316 158.374C202.958 158.422 202.603 158.437 202.331 158.466C200.966 158.603 199.622 158.727 198.251 158.748C196.891 158.767 195.531 158.788 194.17 158.808C193.881 158.812 193.592 158.816 193.303 158.82C196.884 160.777 200.576 162.53 204.215 164.376C203.894 162.378 203.595 160.378 203.316 158.374ZM164.291 113.811C156.129 117.281 145.66 117.595 138.646 111.831C137.949 112.022 137.178 112.086 136.563 112.147C135.18 112.286 133.81 112.414 132.42 112.458C129.712 112.542 127.002 112.669 124.292 112.702C118.812 112.77 113.33 112.802 107.85 112.85C107.382 112.855 107.01 112.712 106.727 112.484C106.172 113.426 105.655 114.39 105.184 115.381C104.497 116.823 103.913 118.315 103.435 119.84C103.538 119.822 103.644 119.81 103.758 119.808C110.961 119.683 118.17 119.89 125.374 119.92C132.581 119.95 139.786 119.92 146.991 119.972C148.986 119.986 150.965 119.986 152.954 120.134C153.989 120.211 155.037 120.245 156.062 120.412C156.177 120.43 156.294 120.447 156.411 120.464C157.785 119.66 159.49 119.827 161.061 119.798C162.865 119.765 164.667 119.734 166.471 119.707C170.014 119.655 173.559 119.616 177.104 119.592C184.138 119.543 191.155 119.723 198.185 119.969C201.683 120.09 205.167 120.297 208.62 120.836C208.852 120.535 209.081 120.234 209.316 119.936C211.763 116.835 214.663 112.864 218.688 111.903C218.534 111.65 218.377 111.4 218.218 111.152C215.429 111.888 212.352 111.85 209.503 112.004C206.218 112.182 202.94 112.304 199.651 112.386C193.114 112.546 186.578 112.647 180.04 112.746C178.226 112.774 176.411 112.803 174.596 112.834C173.617 112.85 172.638 112.868 171.659 112.883C171.112 112.892 170.624 112.89 170.103 112.709C169.62 112.541 169.15 112.289 168.683 112.08C168.52 112.006 168.388 111.898 168.28 111.771C166.998 112.537 165.67 113.224 164.291 113.811ZM132.397 102.273C131.371 102.558 130.312 102.605 129.226 102.687C127.802 102.795 126.381 102.813 124.951 102.822C122.674 102.836 120.397 102.821 118.12 102.758C117.142 102.731 116.571 102.076 116.401 101.327C116.377 101.345 116.353 101.365 116.329 101.384C113.558 103.667 111.048 106.28 108.92 109.171C114.044 109.187 119.168 109.19 124.292 109.225C127.001 109.243 129.712 109.355 132.42 109.424C133.749 109.458 135.058 109.568 136.381 109.694C136.407 109.696 136.435 109.699 136.461 109.702C136.321 109.54 136.182 109.376 136.046 109.207C134.465 107.247 133.165 104.831 132.397 102.273ZM99.0833 205.178C98.6311 203.934 98.8072 202.599 98.8328 201.29C98.8585 199.948 98.8727 198.606 98.8771 197.264C98.8859 194.639 98.9036 192.014 98.9328 189.389C98.9921 184.081 99.0532 178.766 99.262 173.46C99.6744 162.97 100.47 152.505 101.767 142.086C102.398 137.02 103.182 131.966 104.244 126.973C104.229 126.952 104.214 126.932 104.199 126.912C103.142 125.497 101.938 124.19 100.898 122.766C100.806 122.64 100.768 122.478 100.769 122.314C100.731 122.296 100.693 122.276 100.654 122.254C99.7921 121.763 100.571 120.424 101.433 120.921C101.333 120.864 102.765 117.189 102.917 116.818C103.462 115.489 104.074 114.189 104.766 112.929C105.182 112.169 105.628 111.425 106.096 110.695C106.178 110.149 106.473 109.643 106.978 109.373C107.866 108.101 108.825 106.878 109.847 105.713C114.031 100.943 119.258 97.0938 124.968 94.3514C125.793 93.9549 126.643 93.6248 127.489 93.2788C128.39 92.9098 129.226 92.4283 130.114 92.0416C131.559 91.4115 132.986 91.4478 134.405 92.1142C134.527 92.1717 134.44 92.3584 134.316 92.3257C133.403 92.0876 132.466 92.0478 131.551 92.3062C130.652 92.5602 129.97 93.1204 129.186 93.5876C127.789 94.4213 126.228 94.9646 124.797 95.7425C122.904 96.7708 121.053 97.9009 119.284 99.1416C121.118 99.239 122.952 99.3089 124.788 99.3576C126.151 99.3938 127.513 99.4 128.874 99.4788C129.843 99.5354 130.851 99.5195 131.82 99.6761C131.586 98.0699 131.585 96.4505 131.877 94.8859C131.877 94.8859 131.877 94.885 131.877 94.8841C131.948 94.5071 132.034 94.1337 132.138 93.7637C132.362 92.977 133.079 92.8584 133.6 93.1567C133.651 93.1186 133.704 93.0814 133.753 93.0407C134.377 92.5337 134.938 91.9283 135.427 91.2912C136.44 89.9682 137.259 88.4363 137.88 86.8921C138.509 85.3283 138.954 83.6929 139.39 82.0673C139.609 81.2522 139.845 80.4416 140.068 79.6275C140.262 78.9195 140.403 78.1372 140.759 77.4921C140.826 77.3717 141.027 77.3938 141.058 77.531C141.247 78.339 141.147 79.2611 141.112 80.085C141.074 80.9991 141.022 81.9053 140.9 82.8124C140.648 84.6956 140.242 86.5469 139.589 88.3345C138.965 90.0496 138.139 91.6496 137.02 93.0947C136.274 94.054 135.218 95.3248 133.993 95.8416C133.834 97.6434 133.851 99.4469 134.277 101.23C134.834 103.565 135.899 105.784 137.363 107.686C140.432 111.672 145.182 113.925 150.135 114.389C155.261 114.869 160.506 113.722 165.112 111.466C170.235 108.958 174.485 105.089 178.303 100.911C180.503 98.5027 182.785 96.1337 184.824 93.5859C185.186 93.1345 185.764 92.2177 186.45 91.3921C185.752 91.3859 185.035 91.2814 184.417 91.2018C183.138 91.0381 181.888 90.7832 180.639 90.4655C178.303 89.8708 175.838 89.0443 173.797 87.7354C169.477 84.9673 167.79 81.4549 167.214 76.6168C167.032 75.0876 169.676 74.716 169.922 76.2496C170.3 78.6089 170.873 79.7558 171.626 82.0221C172.349 84.1991 173.397 85.0106 175.401 86.2106C177.282 87.3381 179.42 87.9929 181.492 88.6691C182.64 89.0443 183.802 89.3859 184.96 89.7301C185.698 89.9496 186.573 90.1407 187.321 90.4797C187.711 90.1372 188.118 89.8788 188.528 89.7814C188.498 89.731 188.537 89.6522 188.612 89.6664C188.733 89.6912 188.853 89.7177 188.973 89.7425C189.094 89.7514 189.214 89.7752 189.335 89.8186C196.552 91.3823 203.484 94.7115 209.362 99.2478C209.658 99.3717 209.945 99.523 210.217 99.7151C210.358 99.8133 210.451 99.9699 210.478 100.132C211.361 100.854 212.219 101.603 213.047 102.378C219.719 108.62 223.946 116.925 226.906 125.466C229.821 133.881 231.795 142.705 232.88 151.54C233.986 160.546 234.113 169.739 232.509 178.694C231.647 183.502 230.253 188.227 228.194 192.662C226.345 196.645 223.336 201.183 218.61 201.668C218.595 201.683 218.58 201.699 218.563 201.713C216.709 203.241 213.948 202.186 212.009 201.273C211.702 201.128 211.397 200.976 211.093 200.82C211.254 201.438 211.326 202.085 211.359 202.691C211.429 203.95 209.655 204.021 209.319 202.976C206.442 203.482 203.472 203.489 200.563 203.473C197.312 203.456 194.062 203.343 190.815 203.189C184.373 202.886 177.938 202.421 171.491 202.21C158.438 201.782 145.35 202.696 132.306 203.157C128.648 203.286 124.989 203.414 121.33 203.543C117.591 203.675 113.857 203.701 110.149 204.206C108.785 204.392 108.263 203.056 108.647 202.223C108.551 201.664 108.647 201.05 108.699 200.391C108.797 199.16 108.89 197.928 108.977 196.696C109.146 194.294 109.31 191.89 109.465 189.487C109.78 184.617 110.05 179.743 110.313 174.87C110.836 165.181 111.237 155.484 111.532 145.785C111.604 143.421 111.697 141.056 111.816 138.694C111.675 138.47 111.535 138.245 111.398 138.019C110.945 137.262 110.501 136.501 110.042 135.749C109.12 134.24 108.195 132.741 107.227 131.261C106.39 129.984 105.528 128.726 104.627 127.494C103.508 136.945 102.513 146.406 102.057 155.919C101.554 166.396 101.287 176.888 101.143 187.375C101.102 190.305 101.074 193.235 101.043 196.166C101.027 197.691 101.011 199.216 101.023 200.742C101.035 202.201 101.256 203.797 100.738 205.178C100.436 205.983 99.3815 205.997 99.0833 205.178Z" fill="black"/>
<path fill-rule="evenodd" clip-rule="evenodd" d="M126.99 20.7606C132.609 13.0236 142.955 10.7987 151.928 12.6805C169.468 15.8791 186.227 29.2666 189.326 47.4735C194.162 58.4885 191.074 75.8372 177.011 77.1336C175.009 77.2469 173.026 76.7859 171.021 77.0345C158.78 78.9903 144.315 87.3637 133.48 77.4894C132.936 77.8779 132.221 78.0664 131.613 77.831C127 76.0478 126.783 70.8903 126.39 66.6505C125.882 61.1717 125.406 55.6903 124.962 50.2062C124.803 40.7497 121.056 28.9322 126.99 20.7606Z" fill="white"/>
<path fill-rule="evenodd" clip-rule="evenodd" d="M160.997 1.04568C153.613 0.652941 140.005 4.03675 133.562 8.004C123.065 14.4677 122.251 27.3616 122.68 29.5911C122.842 30.4419 123.362 31.2293 124.175 30.9676C123.485 36.8254 123.539 40.1736 123.423 46.0655L123.344 49.9983C123.292 52.6213 123.248 55.2434 123.236 57.8673C122.971 57.7682 122.709 57.8894 122.612 58.1443C122.588 58.2053 122.672 58.239 122.713 58.2036C123.181 57.7956 122.848 58.7257 122.687 58.9142C122.465 59.1744 122.094 59.4195 121.835 59.6425L121.128 60.2531L120.423 60.8637C119.511 61.6505 118.629 62.439 117.779 63.2867L117.547 63.5195C115.997 65.0938 114.055 66.6186 113.09 68.6558C112.168 70.6 112.452 72.8053 113.983 74.3558C114.541 74.9186 115.191 75.3496 115.898 75.6752C114.64 77.7469 114.457 80.4876 115.769 82.6195C117.083 84.7593 119.612 85.8797 122.045 85.7071C122.121 86.0124 122.236 86.3098 122.39 86.5921C123.355 88.3664 125.274 88.5965 127.096 88.5018L127.167 88.4983C131.265 88.262 135.208 87.2354 138.797 85.2398C140.043 85.3239 141.153 84.3009 141.397 83.1788C142.051 83.154 142.709 83.1 143.38 83.023C145.371 82.7929 147.413 82.3655 149.168 81.3531C149.437 81.1982 149.313 80.7885 149.013 80.7805C146.874 80.7319 144.734 80.8797 142.598 80.6478C140.639 80.4363 138.551 79.8965 136.724 79.1611C133.441 77.8372 130.625 75.5903 129.072 72.4779C127.06 68.4496 127.244 63.6106 127.024 59.2345C126.782 54.3894 126.483 49.5496 126.165 44.7098L126.01 42.3903C125.7 37.8686 125.444 35.4497 124.659 30.7563C127.024 30.9676 136.849 27.4302 139.905 21.6437C145.703 33.9535 175.082 28.9156 176.384 47.8664C176.396 48.0275 176.65 47.9823 176.659 47.8283L176.683 47.3965C176.695 47.1832 176.705 46.9735 176.713 46.7646L176.719 46.5567L177.181 46.5629C177.181 46.6204 177.263 46.6416 177.283 46.5797C177.72 45.3434 179.795 45.7416 180.698 46.0354C181.511 46.3009 182.277 46.708 182.965 47.2115C184.347 48.2221 185.418 49.5814 185.774 51.2814C186.449 54.5098 184.394 57.7982 181.666 59.3558C179.946 60.3381 178.061 60.9717 176.413 62.085C174.956 63.0664 173.598 64.2168 172.422 65.5248C167.764 70.7036 165.022 78.5593 167.227 85.3947C167.395 85.9168 167.84 86.5133 168.429 86.5974C169.403 86.7381 170.377 86.5956 170.923 85.6682C171.136 85.3053 171.237 84.8921 171.215 84.4841C171.592 85.7823 172.817 87.0655 173.946 87.5478C175.485 88.2062 177.218 88.0098 178.575 87.1602L178.747 87.2876C180.954 88.9124 183.42 90.3938 186.248 90.0956C188.298 89.8779 190.309 88.8345 191.442 87.1885C192.949 88.0363 194.559 88.7106 196.219 89.1708L196.396 89.2195C198.68 89.8416 201.594 90.4124 203.726 89.1487C205.773 87.9345 206.454 85.2841 205.973 83.0717C205.915 82.808 205.842 82.5522 205.752 82.3036C207.293 82.3859 208.832 82.2381 210.294 81.785C211.788 81.323 213.212 80.4345 213.928 78.9947C214.736 77.3655 214.521 75.5142 213.919 73.8549C212.956 71.1929 211.408 68.8257 209.48 66.7629C207.627 64.777 205.391 63.0929 203.067 61.6885L202.675 61.454C200.583 60.2062 198.061 58.7434 195.589 58.8398C195.597 58.808 195.602 58.7779 195.606 58.746C195.98 55.9912 195.937 53.1823 196.025 50.4044C196.105 47.8496 196.197 45.2947 196.257 42.7378C196.354 38.3909 196.322 34.0257 195.756 29.709C195.253 25.8784 194.348 22.1431 192.697 18.6362C190.964 14.9518 188.354 11.8077 185.13 9.33515C178.367 4.14489 169.431 1.49462 160.997 1.04568ZM183.973 52.1009C183.236 50.7115 181.559 50.2735 180.088 50.5239C178.026 50.8761 176.623 52.6788 175.42 54.2292C174.156 55.8549 176.792 57.3867 177.47 55.8115L177.631 55.4398C178.176 54.1912 178.82 52.8744 179.931 52.0593C181.113 51.1956 182.78 51.0682 183.823 52.2168C183.898 52.3009 184.024 52.1921 183.973 52.1009Z" fill="black"/>
<path fill-rule="evenodd" clip-rule="evenodd" d="M153.067 59.085C149.862 58.6956 146.756 59.677 143.622 60.1726C141.968 60.4337 140.312 60.6284 138.638 60.7009C138.301 60.7151 137.965 60.7239 137.627 60.731C137.596 60.4346 137.43 60.162 137.07 59.9983C136.333 59.6646 135.742 59.5133 134.934 59.5461C134.192 59.5753 133.449 59.6514 132.719 59.785C131.394 60.0275 130.063 60.5797 129.094 61.5372C126.851 63.754 127.192 67.3151 128.926 69.7301C132.506 74.7195 139.042 74.9514 144.639 74.8859L145.156 74.8797C150.252 74.8062 157.543 75.5664 159.858 69.7664C160.711 67.6328 160.592 65.1602 159.55 63.1142C158.306 60.6744 155.688 59.4036 153.067 59.085ZM137.148 67.393L137.193 67.3947C139.542 67.485 141.892 67.5487 144.243 67.5903C144.173 68.1947 144.101 68.7983 144.019 69.4018C143.955 69.8753 143.886 70.3496 143.814 70.8222C143.783 71.0231 143.672 71.3337 143.704 71.5328L143.715 71.6107C143.594 71.6655 143.484 71.7531 143.403 71.8815C143.374 71.9257 143.354 71.97 143.334 72.0142C141.508 72.0284 139.544 71.993 137.683 71.6611L137.68 71.6204C137.646 71.3832 137.547 71.223 137.415 71.1133C137.285 70.3549 137.296 69.5469 137.246 68.7947C137.214 68.3266 137.181 67.8602 137.148 67.393ZM146.039 67.6222C147.733 67.6514 149.427 67.6735 151.12 67.6531L151.889 67.6407C151.727 68.5124 151.55 69.3806 151.403 70.2576C151.25 71.1717 152.054 71.7531 152.75 71.7292C152.672 71.7425 152.594 71.7558 152.516 71.7664C150.341 72.0744 148.083 71.9921 145.876 71.9903C145.995 71.2965 145.947 70.5142 145.965 69.9354L145.968 69.8461C146.002 69.1045 146.026 68.3638 146.039 67.6222ZM157.543 67.4629C157.484 67.916 157.37 68.3593 157.199 68.7717C156.476 70.516 154.819 71.3301 153.065 71.6726C153.369 71.5673 153.611 71.3151 153.672 70.8823C153.824 69.8071 153.879 68.7133 153.882 67.6213C155.104 67.6098 156.335 67.5841 157.543 67.4629ZM130.774 67.0903C131.644 67.2956 132.655 67.2018 133.509 67.2407C134.309 67.277 135.109 67.308 135.909 67.3407C135.871 67.8868 135.835 68.4328 135.795 68.9788C135.742 69.6841 135.738 70.4301 135.603 71.1328C133.993 70.5832 132.551 69.7018 131.469 68.293C131.199 67.9416 130.958 67.5292 130.774 67.0903ZM153.435 61.9461C154.883 62.2894 156.254 63.0142 156.991 64.3399C157.428 65.1275 157.62 66.0593 157.583 66.9788C156.359 66.8363 155.114 66.7823 153.874 66.7372C153.871 66.5142 153.865 66.2912 153.858 66.0682L153.84 65.4983C153.806 64.4098 153.788 63.0443 153.435 61.9461ZM145.937 62.0788L146.575 62.0071C148.346 61.8053 150.117 61.5938 151.888 61.7151C152.144 61.7328 152.404 61.7611 152.665 61.7992C152.352 62.9292 152.378 64.2567 152.248 65.3753C152.196 65.808 152.133 66.2363 152.062 66.6638L151.755 66.6496C149.855 66.5469 147.952 66.4832 146.05 66.408C146.05 66.0505 146.049 65.693 146.042 65.3354L146.035 64.9779C146.014 64.0646 146.073 63.0354 145.937 62.0788ZM137.043 61.9337C138.898 62.2337 140.816 62.2974 142.638 62.2992C143.365 62.3 144.093 62.2558 144.819 62.1912C144.773 62.5788 144.748 62.9699 144.712 63.3522C144.641 64.1239 144.558 64.8947 144.469 65.6638L144.389 66.3372C142.052 66.2319 139.714 66.1169 137.377 65.9983L137.047 65.9806L136.955 64.6859C136.892 63.823 136.823 62.9602 136.725 62.1009L136.798 62.0744C136.884 62.039 136.966 61.9903 137.043 61.9337ZM136.238 62.2558C136.135 63.4761 136.08 64.7018 136.004 65.9239L134.464 65.8416C134.206 65.8275 133.95 65.8133 133.693 65.7983C132.695 65.7407 131.411 65.4381 130.425 65.7204C130.349 64.823 130.605 63.9487 131.415 63.3452C132.837 62.2859 134.648 62.6629 136.238 62.2558ZM141.502 51.3452C139.208 50.0301 133.451 48.6868 133.087 52.8177C132.919 54.7186 134.331 56.2938 135.981 56.9965L136.042 57.0222C137.59 57.6584 140.332 58.377 141.671 56.9974C142.785 55.8487 141.307 53.7894 139.923 54.731C139.212 55.2142 137.713 54.8576 136.919 54.6275L136.87 54.6133C136.012 54.3611 134.871 53.5549 135.225 52.5C135.538 51.5664 136.873 51.3956 137.708 51.3655C138.955 51.3204 140.169 51.6098 141.404 51.7045C141.601 51.7195 141.661 51.4354 141.502 51.3452ZM131.998 44.7027C128.885 44.5567 126.948 47.9584 127.664 50.7452C127.788 51.2266 128.325 51.6983 128.844 51.6443L128.974 51.6319C129.042 51.6257 129.108 51.6177 129.169 51.6009C129.662 51.4638 130.104 50.9514 130.068 50.4195L130.058 50.2646C129.986 48.9478 130.128 47.431 131.693 47.1124C133.019 46.8416 133.759 48.1195 133.775 49.2947C133.778 49.5036 134.012 49.6496 134.197 49.5372C135.156 48.9531 135.322 47.7921 134.956 46.7921C134.492 45.5248 133.33 44.7646 131.998 44.7027ZM155.107 45.4319C152.841 44.6761 150.396 45.8841 149.299 47.8885C148.914 48 148.529 48.2974 148.583 48.7514C148.66 49.4053 148.776 49.8177 149.23 50.3133C149.939 51.0894 151.266 50.6921 151.561 49.7372L151.573 49.6947C151.908 48.4602 153.266 47.6461 154.504 48.0779C155.949 48.5823 155.906 50.1098 156.92 50.9992C157.039 51.1036 157.182 51.1204 157.325 51.0514C158.402 50.531 158.208 48.9638 157.824 48.0673C157.321 46.8912 156.342 45.8443 155.107 45.4319ZM158.194 38.548C156.358 36.6736 151.569 34.8597 150.312 38.3212C150.073 38.9805 150.583 39.8694 151.269 40.0061C152.393 40.2299 153.389 39.7419 154.505 39.8294C155.409 39.9007 156.351 40.2027 157.074 40.7627C159.075 42.3136 159.515 44.9372 160.909 46.9107C160.977 47.0071 161.109 46.9664 161.121 46.8531C161.439 43.9793 160.205 40.6009 158.194 38.548ZM134.245 36.7028C133.027 36.2722 131.646 36.3091 130.421 36.6909C129.188 37.0759 128.055 37.8068 127.181 38.7618C126.786 39.1953 126.419 39.6738 126.126 40.1831C125.969 40.453 125.805 41.0106 125.627 41.3425C124.668 41.897 124.258 43.1605 125.117 44.0593L125.156 44.0987L125.271 44.2128C125.733 44.67 126.429 44.8682 127.06 44.6859C128.471 44.277 128.642 43.1654 129.131 41.9852C129.454 41.2056 130.006 40.5159 130.677 40.0092C132.261 38.8122 134.858 38.4307 136.765 38.9949C136.867 39.025 136.987 38.8955 136.914 38.8016C136.552 38.3333 136.344 37.949 135.86 37.5712C135.369 37.1877 134.834 36.9107 134.245 36.7028Z" fill="black"/>
<path fill-rule="evenodd" clip-rule="evenodd" d="M128.302 37.2999C123.913 37.2999 121.409 38.244 120.491 38.3175L120.464 38.3196C120.082 38.344 119.74 38.3759 119.381 38.5149C118.059 39.0238 117.844 40.4098 118.615 41.2834C118.669 43.0908 118.431 45.2027 118.839 47.0159C119.343 54.6602 122.935 55.9505 124.979 56.4212C126.004 56.6575 127.22 56.7513 128.309 56.5018C130.167 56.4328 132.004 55.8505 133.576 54.8372C135.766 53.4248 137.391 51.254 137.919 48.677C138.169 47.4496 138.286 46.1708 138.15 44.9221L138.13 44.7505C138.842 44.4097 139.666 44.3451 140.516 44.3151C140.922 44.3009 141.322 44.2885 141.711 44.3053C142.091 44.3478 142.466 44.4044 142.843 44.4814C143.255 44.6053 143.643 44.8106 144.002 45.1345L144.027 45.6089C144.094 46.7921 144.249 47.9788 144.489 49.139C144.843 50.8522 145.411 52.4876 146.621 53.7027C147.031 54.3151 147.538 54.862 148.154 55.3345C150.39 57.0575 153.428 57.6894 156.217 57.4513C161.877 56.9682 165.149 52.4726 165.903 50.5513L165.948 50.4354C166.493 49.0062 166.927 47.1531 168.648 46.846L169.014 46.7805C169.8 46.6328 170.525 46.4274 170.985 45.6611C171.187 45.3266 171.29 44.9522 171.316 44.5699C171.585 44.5912 171.853 44.6106 172.12 44.6301C174.253 45.0814 187.047 45.4637 188.068 45.4637C188.068 45.4637 190.031 46.2903 190.86 45.6496C191.434 45.2044 191.623 44.6115 191.307 43.9388C190.83 42.9272 188.629 42.3187 187.651 42.1259C187.651 42.1259 171.878 42.257 170.743 42.0417C170.041 41.3172 168.784 41.4163 167.735 41.3018C166.865 40.6818 165.65 40.2666 164.689 39.9886C164.493 39.9144 164.299 39.8427 164.111 39.7751C162.35 39.1478 160.52 38.8156 158.662 38.6371C156.746 38.455 154.824 38.5374 152.92 38.7984C152.117 38.9074 151.321 39.0482 150.532 39.2325C149.119 39.419 147.712 39.726 146.298 40.0904L146.015 40.164C144.526 40.5546 142.996 40.8925 141.453 40.6277C140.198 40.4136 138.991 39.9303 137.834 39.4077L137.683 39.3393C135.139 38.177 131.165 37.2999 128.302 37.2999ZM150.685 41.5499C151.624 41.3433 152.025 42.7915 151.083 42.9987C150.416 43.1453 149.85 43.4818 149.469 44.0519L149.428 44.1138C148.916 44.9301 147.62 44.1766 148.136 43.3555C148.717 42.4314 149.62 41.7843 150.685 41.5499ZM123.185 40.6519C123.517 40.4187 124.018 40.5918 124.21 40.9214C124.421 41.2844 124.282 41.6885 123.973 41.9259L123.941 41.9491C123.657 42.1496 123.38 42.509 123.345 42.8772L123.342 42.9233C123.304 43.8869 121.807 43.8918 121.845 42.9233C121.881 41.9758 122.43 41.1842 123.185 40.6519Z" fill="black"/>
</g>
</svg>
