<svg width="268" height="57" viewBox="0 0 268 57" fill="none" xmlns="http://www.w3.org/2000/svg">
<g clip-path="url(#clip0_1_16)">
<path d="M117.115 52.0911C118.991 50.1124 120.801 48.2015 122.598 46.3059C128.583 49.2095 132.656 48.1294 134.442 43.1181C134.167 43.1444 133.917 43.1138 133.716 43.1968C123.381 47.4603 112.327 40.1621 112.239 29.0071C112.161 18.943 122.448 11.3649 132.072 14.3975C138.749 16.5008 143.015 22.2948 143.028 29.2913C143.035 33.2356 143.153 37.1842 143.002 41.1219C142.744 47.8626 139.438 52.6181 133.22 55.2789C128.032 57.5003 121.326 56.1732 117.115 52.089V52.0911ZM134.81 29.1164C134.847 25.194 131.554 21.8313 127.691 21.8466C123.794 21.8619 120.471 25.1677 120.46 29.042C120.447 33.03 123.727 36.2878 127.741 36.2812C131.576 36.2747 134.772 33.0344 134.81 29.1186V29.1164Z" fill="#393E46"/>
<path d="M233.679 15.4973V0C236.512 0.935782 239.18 1.8169 241.823 2.69147C241.867 2.89918 241.917 3.0238 241.917 3.14843C241.913 12.0733 242.077 21.0026 241.841 29.921C241.666 36.5305 238.259 41.3887 232.126 43.8375C225.9 46.3234 220.095 45.0575 215.208 40.4354C210.221 35.7193 209.237 27.5006 212.772 21.5449C216.494 15.2764 224.002 12.316 230.782 14.4587C231.718 14.7539 232.629 15.119 233.679 15.4973ZM233.692 29.3962C233.705 25.3208 230.401 21.9821 226.291 21.9187C222.393 21.8597 218.868 25.3055 218.816 29.2279C218.761 33.3274 222.113 36.7469 226.258 36.8213C230.277 36.8956 233.679 33.4958 233.692 29.3962Z" fill="#393E46"/>
<path d="M176.738 29.5121C176.714 38.0457 169.733 44.9875 161.178 44.981C152.404 44.9744 145.464 38.0129 145.477 29.2301C145.488 20.7009 152.561 13.7394 161.202 13.7503C169.853 13.7613 176.762 20.7709 176.738 29.5099V29.5121ZM153.707 29.3153C153.678 33.4127 157.021 36.8235 161.066 36.8213C165.168 36.8213 168.557 33.4302 168.581 29.3022C168.605 25.4214 165.115 21.9362 161.184 21.9144C157.128 21.8925 153.735 25.253 153.707 29.3153Z" fill="#393E46"/>
<path d="M178.148 29.4181C177.958 21.0463 184.856 13.958 193.388 13.7612C202.149 13.5601 209.228 20.3795 209.394 29.1841C209.556 37.6762 202.686 44.7863 194.135 44.9766C185.315 45.1733 178.354 38.3999 178.148 29.4159V29.4181ZM201.178 29.3306C201.139 25.2421 197.723 21.8531 193.722 21.9318C189.586 22.0127 186.212 25.4673 186.304 29.5296C186.391 33.4848 189.887 36.8847 193.79 36.8125C197.887 36.7382 201.217 33.3646 201.178 29.3306Z" fill="#393E46"/>
<path d="M244.69 44.9482V36.3796C245.461 36.3796 246.183 36.3796 246.902 36.3796C250.241 36.3796 253.577 36.3709 256.916 36.384C257.965 36.3884 258.923 36.2157 258.901 34.9191C258.879 33.6576 257.939 33.4258 256.89 33.4499C254.572 33.5023 252.305 33.323 250.236 32.114C244.307 28.6463 243.505 20.5566 248.527 15.9805C250.409 14.2641 252.65 13.4289 255.127 13.3633C258.89 13.2649 262.66 13.3371 266.532 13.3371V21.8991C264.689 21.8991 262.88 21.8991 261.07 21.8991C259.249 21.8991 257.428 21.8838 255.608 21.9166C254.618 21.934 253.728 22.2445 253.787 23.4514C253.844 24.5993 254.69 24.9425 255.705 24.925C257.839 24.8923 259.962 24.925 261.914 25.9439C266 28.0757 268.106 32.2779 267.347 36.7513C266.63 40.9842 263.213 44.3972 258.663 44.7645C254.485 45.1012 250.263 44.9044 246.06 44.9416C245.636 44.946 245.212 44.9416 244.692 44.9416L244.69 44.9482Z" fill="#393E46"/>
<path d="M48.969 14.1176H56.9516C56.9734 14.5418 57.015 14.9944 57.015 15.4491C57.0193 20.6069 56.9975 25.7646 57.0259 30.9202C57.0478 34.7332 59.8901 37.2454 63.5173 36.7207C66.2044 36.3315 68.0891 33.9571 68.1066 30.8239C68.135 25.7974 68.1154 20.7687 68.1154 15.7421C68.1154 15.2305 68.1154 14.7211 68.1154 14.1285H76.1854C76.2138 14.3603 76.2619 14.5658 76.2619 14.7692C76.2553 20.4888 76.3209 26.2106 76.216 31.9303C76.0826 39.0864 69.965 44.9306 62.7062 44.9831C55.3489 45.0378 49.192 39.4296 48.969 32.2211C48.7897 26.4643 48.8925 20.6965 48.8772 14.9331C48.8772 14.6839 48.934 14.4346 48.9734 14.1198L48.969 14.1176Z" fill="#393E46"/>
<path d="M106.913 18.3155C102.18 13.8028 96.4905 12.5106 90.3576 14.8544C84.3559 17.148 80.709 21.7044 80.4204 28.174C80.0662 36.0844 80.2674 44.0211 80.263 51.9468C80.263 52.2792 80.5625 52.8105 80.8446 52.911C83.3108 53.7878 85.8033 54.5858 88.4489 55.4626V43.2996C88.8752 43.4286 89.1682 43.4854 89.435 43.6013C94.5686 45.8424 99.5296 45.4794 104.292 42.5628C112.674 37.4269 114.063 25.1305 106.915 18.3177L106.913 18.3155ZM95.7821 36.8847C91.7504 36.8125 88.3789 33.3252 88.4598 29.3088C88.5407 25.2442 91.9821 21.9253 96.0226 22.0127C100.113 22.1024 103.393 25.4891 103.321 29.5471C103.249 33.6116 99.8116 36.9568 95.7821 36.8847Z" fill="#393E46"/>
<path d="M18.6151 48.442C12.6593 48.442 6.70136 48.4355 0.745583 48.453C0.190236 48.453 -0.00216801 48.3502 1.8395e-05 47.7424C0.0218825 37.9385 0.0196961 28.1347 1.8395e-05 18.333C1.8395e-05 17.7405 0.179304 17.6006 0.74777 17.6006C12.5085 17.6159 24.2669 17.6071 36.0276 17.6159C38.8306 17.6159 40.6278 19.4437 40.63 22.262C40.6322 29.4487 40.5907 36.6376 40.6519 43.8243C40.6737 46.459 38.5901 48.5011 36.0233 48.4661C30.2205 48.3918 24.4178 48.442 18.6151 48.442Z" fill="#F8B500"/>
<path d="M32.8311 30.3364C31.305 23.3923 24.8704 19.1245 17.8936 20.3751C10.5779 21.6848 5.89678 29.3547 8.04165 36.5108C9.70769 42.073 14.7517 45.7899 20.5457 45.709C22.4151 45.6828 24.2058 45.2739 25.8849 44.4321C26.7835 43.9817 27.1246 43.0525 26.7245 42.2217C26.3375 41.4193 25.4236 41.1175 24.5293 41.4914C24.3282 41.5767 24.1205 41.6467 23.9171 41.7232C23.5411 41.9221 23.0994 41.9309 22.7212 42.1277C21.1426 42.613 19.5618 42.5365 17.9723 42.1626C12.9283 40.9732 9.67927 35.5247 11.0808 30.5441C12.1018 26.9168 14.485 24.643 18.1013 23.635C19.5968 23.2765 21.0923 23.2546 22.5878 23.646C23.7969 23.987 24.9273 24.4921 25.9483 25.2377C27.6122 26.4533 28.6988 28.0866 29.4269 29.9844C29.8751 31.5892 30.1637 33.2006 29.7002 34.8557C29.4378 35.6778 28.9065 36.0713 28.1697 35.9904C27.4635 35.9139 26.9694 35.3498 26.9082 34.5255C26.8863 34.2413 26.8972 33.9549 26.8972 33.6685C26.8907 31.7794 26.8928 29.8882 26.8732 27.9991C26.8666 27.2929 26.5124 26.7725 25.8477 26.532C25.1962 26.2959 24.5556 26.3921 24.103 26.9409C23.8144 27.2885 23.5914 27.2229 23.2656 27.0568C21.7286 26.2806 20.1215 26.1079 18.4686 26.6107C15.154 27.623 13.1972 30.848 13.8487 34.1954C14.4872 37.4728 17.4629 39.7073 20.8759 39.4712C21.3984 39.2831 21.9712 39.3181 22.4851 39.0973C23.1388 38.9399 23.7226 38.6207 24.2189 38.1899C24.6627 37.8051 24.9491 37.8008 25.4214 38.2052C27.868 40.2955 32.0375 39.0361 32.7655 35.9576C33.2116 34.0773 33.2422 32.197 32.8333 30.3364H32.8311ZM20.2921 36.2572C18.4599 36.2484 16.9994 34.7748 16.9994 32.9382C16.9994 31.0666 18.4883 29.5646 20.3293 29.5777C22.1462 29.593 23.622 31.0776 23.6351 32.9076C23.6504 34.7551 22.1418 36.2659 20.2943 36.2572H20.2921Z" fill="#F7F7F7"/>
<path d="M10.8402 14.3865H36.6442C36.6442 14.3865 37.3569 9.58519 34.296 8.19682C33.4476 7.81201 32.4747 7.79452 31.5826 8.06563L10.838 14.3843L10.8402 14.3865Z" fill="#F8B500"/>
</g>
<defs>
<clipPath id="clip0_1_16">
<rect width="268" height="57" fill="white"/>
</clipPath>
</defs>
</svg>
